<?xml version="1.0" standalone="no"?><!DOCTYPE svg PUBLIC "-//W3C//DTD SVG 1.1//EN" "http://www.w3.org/Graphics/SVG/1.1/DTD/svg11.dtd"><svg t="1762502909724" class="icon" viewBox="0 0 1024 1024" version="1.1" xmlns="http://www.w3.org/2000/svg" p-id="4638" xmlns:xlink="http://www.w3.org/1999/xlink" width="200" height="200"><path d="M163.584 673.536c33.536 0 59.648-8.96 59.648-50.176 0-19.712-10.24-27.136-24.064-34.048-17.408-8.704-19.712-11.008-19.712-15.872 0-7.936 3.84-11.264 17.152-11.264 11.776 0 23.296 2.816 29.696 5.12l6.656-31.488a128.096 128.096 0 0 0-32.768-4.608c-34.048 0-59.392 10.24-59.392 49.152 0 18.176 9.472 25.088 25.6 33.024 14.08 6.912 17.664 9.984 17.664 16.384 0 7.936-4.864 11.264-16.64 11.264-11.008 0-23.296-2.304-35.328-6.656l-6.144 34.304c12.032 3.072 25.088 4.864 37.632 4.864z m123.904 0c6.144 0 14.336-0.512 20.224-1.536l6.144-32.256c-2.816 0.768-6.912 1.28-10.752 1.28-8.704 0-11.264-1.792-11.264-8.448v-1.504c0.256-5.696 2.016-17.152 12.288-67.872h24.064l5.632-29.44h-23.808c2.048-9.728 4.096-20.736 6.656-32.768H276.224c-2.56 11.776-4.608 22.784-6.656 32.768h-16.896l-5.888 29.44h16.64c-11.008 56.32-13.824 74.24-13.824 81.152 0 21.248 14.336 29.184 37.888 29.184zM370.944 672l14.592-75.52c7.168-21.504 23.552-27.904 41.216-27.904h3.328l8.704-37.376h-2.816c-16.64 0-30.464 4.608-43.264 27.392l4.864-24.832h-40.96L329.984 672h40.96z m116.48 2.56c16.896 0 37.632-5.632 45.312-9.984l6.4-34.816c-8.192 5.12-26.112 11.264-43.52 11.264-17.92 0-25.344-6.144-26.368-19.968 50.176-2.56 87.808-17.408 87.808-55.04 0-22.528-16.64-34.816-44.544-34.816-52.736 0-82.176 44.544-82.176 91.648 0 37.12 22.016 51.712 57.088 51.712z m-14.848-80.384c6.144-18.688 19.712-33.28 37.888-33.28 6.912 0 11.52 2.816 11.52 8.96 0 12.544-16.896 22.016-49.408 24.32z m129.792 80.384c26.88 0 37.12-13.824 44.544-30.72h1.536c-1.024 4.096-1.28 6.912-1.28 9.472 0 12.032 5.12 20.224 23.296 20.224 9.728 0 15.872-1.28 21.504-2.816l6.144-29.184a24.224 24.224 0 0 1-8.448 1.28c-4.864 0-6.656-1.536-6.656-7.168 0-7.68 3.968-27.872 8.768-49.12l2.944-12.8c1.472-6.4 2.976-12.64 4.416-18.464l-2.048-2.304c-10.752-12.032-29.952-21.76-54.528-21.76-56.064 0-81.408 49.152-81.408 96.256 0 32.256 14.848 47.104 41.216 47.104z m13.312-31.744c-9.728 0-13.312-7.936-13.312-21.504 0-28.16 15.104-58.624 38.144-58.624 8.448 0 15.872 4.608 17.152 8.96 0 20.48-19.456 71.168-41.984 71.168z m134.656 29.184l17.152-89.088c4.096-11.264 12.288-20.224 28.416-20.224 9.216 0 15.616 3.328 15.616 14.08 0 2.816-0.768 8.448-1.536 12.288L793.344 672h40.96l17.408-88.064v-0.512c4.096-11.52 11.264-20.736 28.672-20.736 9.216 0 15.616 3.328 15.616 14.08 0 2.816-0.768 8.448-1.536 12.288L877.824 672h40.96l17.408-88.064c0.768-4.352 1.792-11.008 1.792-15.616 0-23.552-13.824-37.12-40.448-37.12-19.712 0-36.352 8.192-45.056 20.992-3.072-14.592-12.8-20.992-34.304-20.992-18.944 0-35.072 7.936-44.544 20.48l3.328-17.92H736L709.376 672h40.96zM260.032 382.4l-0.8 27.808a121.664 121.664 0 0 1 77.76 36.64 121.664 121.664 0 0 1 33.92 78.976l27.808 0.16a148.704 148.704 0 0 0-41.504-98.688 148.736 148.736 0 0 0-97.184-44.928z m2.016-69.6l-0.832 27.84a189.44 189.44 0 0 1 126.4 57.28 189.44 189.44 0 0 1 52.864 128.32l27.84 0.192c-0.832-53.76-20.704-106.88-60.48-148.064-39.744-41.152-92.16-62.848-145.792-65.568z m196.48 16.672C405.536 274.656 335.488 246.08 264 243.264l-0.8 27.84c64.352 2.752 127.36 28.576 175.04 77.92 47.648 49.376 71.264 113.248 71.776 177.664l27.84 0.16c-0.32-71.552-26.464-142.56-79.36-197.376z" fill="#2988CC" p-id="4639"></path><path d="M32 820.384c0-18.016 3.008-35.072 8.992-51.168 6.016-16.096 14.304-30.4 24.96-42.816a132.16 132.16 0 0 1 37.376-30.4 125.184 125.184 0 0 1 46.08-14.528 20.576 20.576 0 0 1 6.656-1.088h50.176v-28.416c0.224-4.736 1.92-8.288 5.056-10.656 3.168-2.368 7.264-1.536 12.32 2.496 1.472 1.184 4.288 3.616 8.512 7.264 4.224 3.68 8.896 7.84 14.048 12.448 5.152 4.608 10.368 9.28 15.616 14.048 5.28 4.736 9.792 8.864 13.568 12.416a89.6 89.6 0 0 1 8.864 9.248 14.24 14.24 0 0 1 3.776 8.864c0 3.328-1.12 6.112-3.328 8.352-2.208 2.24-4.864 4.8-8.032 7.648l-15.776 13.504-15.648 12.8c-4.928 4-9.28 7.52-13.088 10.464a78.016 78.016 0 0 1-8.192 5.856 28.48 28.48 0 0 1-8.064 4.096c-2.24 0.576-4 0.544-5.376-0.192a7.04 7.04 0 0 1-3.136-3.52 12.992 12.992 0 0 1-1.12-5.344v-28.416H154.464a77.408 77.408 0 0 0-28.704 9.056 81.92 81.92 0 0 0-23.2 19.008 89.088 89.088 0 0 0-21.312 58.624c0 12.064 2.112 23.36 6.304 33.92a84.128 84.128 0 0 0 43.232 46.176c9.92 4.64 20.416 6.944 31.584 6.944l48.928-0.352c3.36 0 6.784 0.704 10.24 2.112a29.824 29.824 0 0 1 15.616 14.048 22.496 22.496 0 0 1 0 20.8 26.752 26.752 0 0 1-6.752 8.512 35.968 35.968 0 0 1-9.472 5.664 26.944 26.944 0 0 1-10.24 2.144H153.152a13.056 13.056 0 0 1-2.816-0.352 120.32 120.32 0 0 1-46.56-14.4 133.984 133.984 0 0 1-37.568-30.56A144.16 144.16 0 0 1 32 820.352z" fill="#FF9A36" p-id="4640"></path></svg>